<?xml version="1.0" encoding="UTF-8" standalone="no"?>
<!-- Created by Flowgorithm 2.30.3 (http://flowgorithm.org) -->

<svg xmlns:svg="http://www.w3.org/2000/svg" xmlns="http://www.w3.org/2000/svg" version="1.1" width="3200" height="7550">
	<rect x="0" y="0" width="3200" height="7550" fill="#403C38"/>
	<g>
		<polyline fill="none" stroke="#EAEEF0" stroke-width="6" stroke-dasharray="none" points="475,200 475,261"/>
		<polygon fill="#EAEEF0" stroke="none" points="475,275 488,250 461,250"/>
		<polyline fill="none" stroke="#EAEEF0" stroke-width="6" stroke-dasharray="none" points="475,1750 475,7336"/>
		<polygon fill="#EAEEF0" stroke="none" points="475,7350 488,7325 461,7325"/>
		<g>
			<path fill="#E0E0E0" stroke="#101010" stroke-width="3" stroke-dasharray="none" d="M 375,100 A 50,50 0 0,0 375,200 L 575,200 A 50,50 0 0,0 575,100 Z"/>
			<text x="475" y="115" fill="#505050" font-family="Arial" font-size="32pt" text-anchor="middle" direction="ltr">
				<tspan x="475" dy="50" unicode-bidi="embed">Main</tspan>
			</text>
		</g>
		<g>
			<path fill="#E0E0E0" stroke="#101010" stroke-width="3" stroke-dasharray="none" d="M 375,7350 A 50,50 0 0,0 375,7450 L 575,7450 A 50,50 0 0,0 575,7350 Z"/>
			<text x="475" y="7365" fill="#505050" font-family="Arial" font-size="32pt" text-anchor="middle" direction="ltr">
				<tspan x="475" dy="50" unicode-bidi="embed">End</tspan>
			</text>
		</g>
		<g>
			<polyline fill="none" stroke="#EAEEF0" stroke-width="6" stroke-dasharray="none" points="475,400 475,461"/>
			<polygon fill="#EAEEF0" stroke="none" points="475,475 488,450 461,450"/>
			<polyline fill="none" stroke="#EAEEF0" stroke-width="6" stroke-dasharray="none" points="475,575 475,636"/>
			<polygon fill="#EAEEF0" stroke="none" points="475,650 488,625 461,625"/>
			<polyline fill="none" stroke="#EAEEF0" stroke-width="6" stroke-dasharray="none" points="475,775 475,836"/>
			<polygon fill="#EAEEF0" stroke="none" points="475,850 488,825 461,825"/>
			<polyline fill="none" stroke="#EAEEF0" stroke-width="6" stroke-dasharray="none" points="475,950 475,1011"/>
			<polygon fill="#EAEEF0" stroke="none" points="475,1025 488,1000 461,1000"/>
			<polyline fill="none" stroke="#EAEEF0" stroke-width="6" stroke-dasharray="none" points="475,1150 475,1211"/>
			<polygon fill="#EAEEF0" stroke="none" points="475,1225 488,1200 461,1200"/>
			<polyline fill="none" stroke="#EAEEF0" stroke-width="6" stroke-dasharray="none" points="475,1325 475,1386"/>
			<polygon fill="#EAEEF0" stroke="none" points="475,1400 488,1375 461,1375"/>
			<polyline fill="none" stroke="#EAEEF0" stroke-width="6" stroke-dasharray="none" points="475,1550 475,1636"/>
			<polygon fill="#EAEEF0" stroke="none" points="475,1650 488,1625 461,1625"/>
			<g>
				<path fill="#2060A0" stroke="#60A0E0" stroke-width="3" stroke-dasharray="none" d="M 250,275 L 250,400 L 700,400 L 700,275 Z"/>
				<polyline fill="none" stroke="#60A0E0" stroke-width="3" stroke-dasharray="none" points="250,300 700,300"/>
				<polyline fill="none" stroke="#60A0E0" stroke-width="3" stroke-dasharray="none" points="275,275 275,400"/>
				<text x="487" y="315" fill="#FFC080" font-family="Arial" font-size="32pt" text-anchor="middle" direction="ltr">
					<tspan x="487" dy="50" unicode-bidi="embed">Integer userInput</tspan>
				</text>
			</g>
			<g>
				<path fill="#2060A0" stroke="#60A0E0" stroke-width="3" stroke-dasharray="none" d="M 300,475 L 300,575 L 650,575 L 650,475 Z"/>
				<text x="475" y="490" fill="#FFC080" font-family="Arial" font-size="32pt" text-anchor="middle" direction="ltr">
					<tspan x="475" dy="50" unicode-bidi="embed">userInput = 5</tspan>
				</text>
			</g>
			<g>
				<path fill="#2060A0" stroke="#60A0E0" stroke-width="3" stroke-dasharray="none" d="M 325,650 L 325,775 L 625,775 L 625,650 Z"/>
				<polyline fill="none" stroke="#60A0E0" stroke-width="3" stroke-dasharray="none" points="325,675 625,675"/>
				<polyline fill="none" stroke="#60A0E0" stroke-width="3" stroke-dasharray="none" points="350,650 350,775"/>
				<text x="487" y="690" fill="#FFC080" font-family="Arial" font-size="32pt" text-anchor="middle" direction="ltr">
					<tspan x="487" dy="50" unicode-bidi="embed">Integer col</tspan>
				</text>
			</g>
			<g>
				<path fill="#2060A0" stroke="#60A0E0" stroke-width="3" stroke-dasharray="none" d="M 325,850 L 325,950 L 625,950 L 625,850 Z"/>
				<text x="475" y="865" fill="#FFC080" font-family="Arial" font-size="32pt" text-anchor="middle" direction="ltr">
					<tspan x="475" dy="50" unicode-bidi="embed">col = 0</tspan>
				</text>
			</g>
			<g>
				<path fill="#2060A0" stroke="#60A0E0" stroke-width="3" stroke-dasharray="none" d="M 325,1025 L 325,1150 L 625,1150 L 625,1025 Z"/>
				<polyline fill="none" stroke="#60A0E0" stroke-width="3" stroke-dasharray="none" points="325,1050 625,1050"/>
				<polyline fill="none" stroke="#60A0E0" stroke-width="3" stroke-dasharray="none" points="350,1025 350,1150"/>
				<text x="487" y="1065" fill="#FFC080" font-family="Arial" font-size="32pt" text-anchor="middle" direction="ltr">
					<tspan x="487" dy="50" unicode-bidi="embed">Integer i</tspan>
				</text>
			</g>
			<g>
				<path fill="#2060A0" stroke="#60A0E0" stroke-width="3" stroke-dasharray="none" d="M 325,1225 L 325,1325 L 625,1325 L 625,1225 Z"/>
				<text x="475" y="1240" fill="#FFC080" font-family="Arial" font-size="32pt" text-anchor="middle" direction="ltr">
					<tspan x="475" dy="50" unicode-bidi="embed">i = 0</tspan>
				</text>
			</g>
			<g>
				<path fill="#A04040" stroke="#E08080" stroke-width="3" stroke-dasharray="none" d="M 175,1400 L 100,1550 L 775,1550 L 850,1400 Z"/>
				<text x="475" y="1415" fill="#FFFF80" font-family="Arial" font-size="32pt" text-anchor="middle" direction="ltr">
					<tspan x="475" dy="50" unicode-bidi="embed">Output &quot;This is default size</tspan>
					<tspan x="475" dy="50" unicode-bidi="embed"> of ITBI (5)&quot;</tspan>
				</text>
			</g>
			<g>
				<polyline fill="none" stroke="#EAEEF0" stroke-width="6" stroke-dasharray="none" points="700,1700 1575,1700 1575,1786"/>
				<polygon fill="#EAEEF0" stroke="none" points="1575,1800 1588,1775 1561,1775"/>
				<polyline fill="none" stroke="#EAEEF0" stroke-width="6" stroke-dasharray="none" points="1575,7200 1575,7275 525,7275 525,1763"/>
				<polygon fill="#EAEEF0" stroke="none" points="525,1750 511,1774 538,1774"/>
				<g>
					<polyline fill="none" stroke="#EAEEF0" stroke-width="6" stroke-dasharray="none" points="1575,6500 1575,6561"/>
					<polygon fill="#EAEEF0" stroke="none" points="1575,6575 1588,6550 1561,6550"/>
					<polyline fill="none" stroke="#EAEEF0" stroke-width="6" stroke-dasharray="none" points="1575,6725 1575,6786"/>
					<polygon fill="#EAEEF0" stroke="none" points="1575,6800 1588,6775 1561,6775"/>
					<polyline fill="none" stroke="#EAEEF0" stroke-width="6" stroke-dasharray="none" points="1575,7000 1575,7061"/>
					<polygon fill="#EAEEF0" stroke="none" points="1575,7075 1588,7050 1561,7050"/>
					<g>
						<polyline fill="none" stroke="#EAEEF0" stroke-width="6" stroke-dasharray="none" points="1875,1975 2025,1975 2025,2211"/>
						<polygon fill="#EAEEF0" stroke="none" points="2025,2225 2038,2200 2011,2200"/>
						<polyline fill="none" stroke="#EAEEF0" stroke-width="6" stroke-dasharray="none" points="2025,6375 2025,6475 1613,6475"/>
						<polygon fill="#EAEEF0" stroke="none" points="1600,6475 1624,6488 1624,6461"/>
						<polyline fill="none" stroke="#EAEEF0" stroke-width="6" stroke-dasharray="none" points="1275,1975 825,1975 825,2211"/>
						<polygon fill="#EAEEF0" stroke="none" points="825,2225 838,2200 811,2200"/>
						<polyline fill="none" stroke="#EAEEF0" stroke-width="6" stroke-dasharray="none" points="825,2325 825,6475 1536,6475"/>
						<polygon fill="#EAEEF0" stroke="none" points="1550,6475 1525,6461 1525,6488"/>
						<g>
							<path fill="#60A060" stroke="#A0E0A0" stroke-width="3" stroke-dasharray="none" d="M 1575,1800 L 1250,1975 L 1575,2150 L 1900,1975 Z"/>
							<text x="1575" y="1915" fill="#F8F8F8" font-family="Arial" font-size="32pt" text-anchor="middle" direction="ltr">
								<tspan x="1575" dy="50" unicode-bidi="embed">(userInput%5)==0||</tspan>
								<tspan x="1575" dy="50" unicode-bidi="embed">userInput&gt;=5</tspan>
							</text>
						</g>
						<g>
							<polyline fill="none" stroke="#EAEEF0" stroke-width="6" stroke-dasharray="none" points="2025,2325 2025,2861"/>
							<polygon fill="#EAEEF0" stroke="none" points="2025,2875 2038,2850 2011,2850"/>
							<polyline fill="none" stroke="#EAEEF0" stroke-width="6" stroke-dasharray="none" points="2025,2975 2025,3061"/>
							<polygon fill="#EAEEF0" stroke="none" points="2025,3075 2038,3050 2011,3050"/>
							<polyline fill="none" stroke="#EAEEF0" stroke-width="6" stroke-dasharray="none" points="2025,3175 2025,3711"/>
							<polygon fill="#EAEEF0" stroke="none" points="2025,3725 2038,3700 2011,3700"/>
							<polyline fill="none" stroke="#EAEEF0" stroke-width="6" stroke-dasharray="none" points="2025,3825 2025,3911"/>
							<polygon fill="#EAEEF0" stroke="none" points="2025,3925 2038,3900 2011,3900"/>
							<polyline fill="none" stroke="#EAEEF0" stroke-width="6" stroke-dasharray="none" points="2025,4025 2025,4561"/>
							<polygon fill="#EAEEF0" stroke="none" points="2025,4575 2038,4550 2011,4550"/>
							<polyline fill="none" stroke="#EAEEF0" stroke-width="6" stroke-dasharray="none" points="2025,4675 2025,4761"/>
							<polygon fill="#EAEEF0" stroke="none" points="2025,4775 2038,4750 2011,4750"/>
							<polyline fill="none" stroke="#EAEEF0" stroke-width="6" stroke-dasharray="none" points="2025,4875 2025,5411"/>
							<polygon fill="#EAEEF0" stroke="none" points="2025,5425 2038,5400 2011,5400"/>
							<polyline fill="none" stroke="#EAEEF0" stroke-width="6" stroke-dasharray="none" points="2025,5525 2025,5611"/>
							<polygon fill="#EAEEF0" stroke="none" points="2025,5625 2038,5600 2011,5600"/>
							<polyline fill="none" stroke="#EAEEF0" stroke-width="6" stroke-dasharray="none" points="2025,5725 2025,6261"/>
							<polygon fill="#EAEEF0" stroke="none" points="2025,6275 2038,6250 2011,6250"/>
							<g>
								<polyline fill="none" stroke="#EAEEF0" stroke-width="6" stroke-dasharray="none" points="2275,2275 2400,2275 2400,2386"/>
								<polygon fill="#EAEEF0" stroke="none" points="2400,2400 2413,2375 2386,2375"/>
								<polyline fill="none" stroke="#EAEEF0" stroke-width="6" stroke-dasharray="none" points="2400,2500 2400,2800 2075,2800 2075,2338"/>
								<polygon fill="#EAEEF0" stroke="none" points="2075,2325 2061,2349 2088,2349"/>
								<g>
									<polyline fill="none" stroke="#EAEEF0" stroke-width="6" stroke-dasharray="none" points="2600,2450 2825,2450 2825,2536"/>
									<polygon fill="#EAEEF0" stroke="none" points="2825,2550 2838,2525 2811,2525"/>
									<polyline fill="none" stroke="#EAEEF0" stroke-width="6" stroke-dasharray="none" points="2825,2650 2825,2725 2450,2725 2450,2513"/>
									<polygon fill="#EAEEF0" stroke="none" points="2450,2500 2436,2524 2463,2524"/>
									<g>
										<path fill="#60A060" stroke="#A0E0A0" stroke-width="3" stroke-dasharray="none" d="M 2550,2550 L 2550,2650 L 3100,2650 L 3100,2550 Z"/>
										<polyline fill="none" stroke="#A0E0A0" stroke-width="3" stroke-dasharray="none" points="2575,2550 2575,2650"/>
										<polyline fill="none" stroke="#A0E0A0" stroke-width="3" stroke-dasharray="none" points="3075,2550 3075,2650"/>
										<text x="2825" y="2565" fill="#F8F8F8" font-family="Arial" font-size="32pt" text-anchor="middle" direction="ltr">
											<tspan x="2825" dy="50" unicode-bidi="embed">printcol(userInput,col)</tspan>
										</text>
									</g>
									<g>
										<path fill="#E0E080" stroke="#101010" stroke-width="3" stroke-dasharray="none" d="M 2250,2400 L 2200,2450 L 2250,2500 L 2550,2500 L 2600,2450 L 2550,2400 Z"/>
										<text x="2400" y="2415" fill="#101010" font-family="Arial" font-size="32pt" text-anchor="middle" direction="ltr">
											<tspan x="2400" dy="50" unicode-bidi="embed">col = 0 to 4</tspan>
										</text>
									</g>
									<text x="2675" y="2365" fill="#DADCE0" font-family="Arial" font-size="32pt" text-anchor="middle" direction="ltr">
										<tspan x="2675" dy="50" unicode-bidi="embed">Next</tspan>
									</text>
									<text x="2312" y="2515" fill="#DADCE0" font-family="Arial" font-size="32pt" text-anchor="middle" direction="ltr">
										<tspan x="2312" dy="50" unicode-bidi="embed">Done</tspan>
									</text>
								</g>
								<g>
									<path fill="#E0E080" stroke="#101010" stroke-width="3" stroke-dasharray="none" d="M 1825,2225 L 1775,2275 L 1825,2325 L 2225,2325 L 2275,2275 L 2225,2225 Z"/>
									<text x="2025" y="2240" fill="#101010" font-family="Arial" font-size="32pt" text-anchor="middle" direction="ltr">
										<tspan x="2025" dy="50" unicode-bidi="embed">i = i to userInput/5</tspan>
									</text>
								</g>
								<text x="2350" y="2190" fill="#DADCE0" font-family="Arial" font-size="32pt" text-anchor="middle" direction="ltr">
									<tspan x="2350" dy="50" unicode-bidi="embed">Next</tspan>
								</text>
								<text x="1937" y="2340" fill="#DADCE0" font-family="Arial" font-size="32pt" text-anchor="middle" direction="ltr">
									<tspan x="1937" dy="50" unicode-bidi="embed">Done</tspan>
								</text>
							</g>
							<g>
								<path fill="#2060A0" stroke="#60A0E0" stroke-width="3" stroke-dasharray="none" d="M 1875,2875 L 1875,2975 L 2175,2975 L 2175,2875 Z"/>
								<text x="2025" y="2890" fill="#FFC080" font-family="Arial" font-size="32pt" text-anchor="middle" direction="ltr">
									<tspan x="2025" dy="50" unicode-bidi="embed">i = 0</tspan>
								</text>
							</g>
							<g>
								<polyline fill="none" stroke="#EAEEF0" stroke-width="6" stroke-dasharray="none" points="2275,3125 2400,3125 2400,3236"/>
								<polygon fill="#EAEEF0" stroke="none" points="2400,3250 2413,3225 2386,3225"/>
								<polyline fill="none" stroke="#EAEEF0" stroke-width="6" stroke-dasharray="none" points="2400,3350 2400,3650 2075,3650 2075,3188"/>
								<polygon fill="#EAEEF0" stroke="none" points="2075,3175 2061,3199 2088,3199"/>
								<g>
									<polyline fill="none" stroke="#EAEEF0" stroke-width="6" stroke-dasharray="none" points="2600,3300 2825,3300 2825,3386"/>
									<polygon fill="#EAEEF0" stroke="none" points="2825,3400 2838,3375 2811,3375"/>
									<polyline fill="none" stroke="#EAEEF0" stroke-width="6" stroke-dasharray="none" points="2825,3500 2825,3575 2450,3575 2450,3363"/>
									<polygon fill="#EAEEF0" stroke="none" points="2450,3350 2436,3374 2463,3374"/>
									<g>
										<path fill="#60A060" stroke="#A0E0A0" stroke-width="3" stroke-dasharray="none" d="M 2550,3400 L 2550,3500 L 3100,3500 L 3100,3400 Z"/>
										<polyline fill="none" stroke="#A0E0A0" stroke-width="3" stroke-dasharray="none" points="2575,3400 2575,3500"/>
										<polyline fill="none" stroke="#A0E0A0" stroke-width="3" stroke-dasharray="none" points="3075,3400 3075,3500"/>
										<text x="2825" y="3415" fill="#F8F8F8" font-family="Arial" font-size="32pt" text-anchor="middle" direction="ltr">
											<tspan x="2825" dy="50" unicode-bidi="embed">printcol(userInput,col)</tspan>
										</text>
									</g>
									<g>
										<path fill="#E0E080" stroke="#101010" stroke-width="3" stroke-dasharray="none" d="M 2250,3250 L 2200,3300 L 2250,3350 L 2550,3350 L 2600,3300 L 2550,3250 Z"/>
										<text x="2400" y="3265" fill="#101010" font-family="Arial" font-size="32pt" text-anchor="middle" direction="ltr">
											<tspan x="2400" dy="50" unicode-bidi="embed">col = 5 to 9</tspan>
										</text>
									</g>
									<text x="2675" y="3215" fill="#DADCE0" font-family="Arial" font-size="32pt" text-anchor="middle" direction="ltr">
										<tspan x="2675" dy="50" unicode-bidi="embed">Next</tspan>
									</text>
									<text x="2312" y="3365" fill="#DADCE0" font-family="Arial" font-size="32pt" text-anchor="middle" direction="ltr">
										<tspan x="2312" dy="50" unicode-bidi="embed">Done</tspan>
									</text>
								</g>
								<g>
									<path fill="#E0E080" stroke="#101010" stroke-width="3" stroke-dasharray="none" d="M 1825,3075 L 1775,3125 L 1825,3175 L 2225,3175 L 2275,3125 L 2225,3075 Z"/>
									<text x="2025" y="3090" fill="#101010" font-family="Arial" font-size="32pt" text-anchor="middle" direction="ltr">
										<tspan x="2025" dy="50" unicode-bidi="embed">i = i to userInput/5</tspan>
									</text>
								</g>
								<text x="2350" y="3040" fill="#DADCE0" font-family="Arial" font-size="32pt" text-anchor="middle" direction="ltr">
									<tspan x="2350" dy="50" unicode-bidi="embed">Next</tspan>
								</text>
								<text x="1937" y="3190" fill="#DADCE0" font-family="Arial" font-size="32pt" text-anchor="middle" direction="ltr">
									<tspan x="1937" dy="50" unicode-bidi="embed">Done</tspan>
								</text>
							</g>
							<g>
								<path fill="#2060A0" stroke="#60A0E0" stroke-width="3" stroke-dasharray="none" d="M 1875,3725 L 1875,3825 L 2175,3825 L 2175,3725 Z"/>
								<text x="2025" y="3740" fill="#FFC080" font-family="Arial" font-size="32pt" text-anchor="middle" direction="ltr">
									<tspan x="2025" dy="50" unicode-bidi="embed">i = 0</tspan>
								</text>
							</g>
							<g>
								<polyline fill="none" stroke="#EAEEF0" stroke-width="6" stroke-dasharray="none" points="2275,3975 2400,3975 2400,4086"/>
								<polygon fill="#EAEEF0" stroke="none" points="2400,4100 2413,4075 2386,4075"/>
								<polyline fill="none" stroke="#EAEEF0" stroke-width="6" stroke-dasharray="none" points="2400,4200 2400,4500 2075,4500 2075,4038"/>
								<polygon fill="#EAEEF0" stroke="none" points="2075,4025 2061,4049 2088,4049"/>
								<g>
									<polyline fill="none" stroke="#EAEEF0" stroke-width="6" stroke-dasharray="none" points="2625,4150 2825,4150 2825,4236"/>
									<polygon fill="#EAEEF0" stroke="none" points="2825,4250 2838,4225 2811,4225"/>
									<polyline fill="none" stroke="#EAEEF0" stroke-width="6" stroke-dasharray="none" points="2825,4350 2825,4425 2450,4425 2450,4213"/>
									<polygon fill="#EAEEF0" stroke="none" points="2450,4200 2436,4224 2463,4224"/>
									<g>
										<path fill="#60A060" stroke="#A0E0A0" stroke-width="3" stroke-dasharray="none" d="M 2550,4250 L 2550,4350 L 3100,4350 L 3100,4250 Z"/>
										<polyline fill="none" stroke="#A0E0A0" stroke-width="3" stroke-dasharray="none" points="2575,4250 2575,4350"/>
										<polyline fill="none" stroke="#A0E0A0" stroke-width="3" stroke-dasharray="none" points="3075,4250 3075,4350"/>
										<text x="2825" y="4265" fill="#F8F8F8" font-family="Arial" font-size="32pt" text-anchor="middle" direction="ltr">
											<tspan x="2825" dy="50" unicode-bidi="embed">printcol(userInput,col)</tspan>
										</text>
									</g>
									<g>
										<path fill="#E0E080" stroke="#101010" stroke-width="3" stroke-dasharray="none" d="M 2225,4100 L 2175,4150 L 2225,4200 L 2575,4200 L 2625,4150 L 2575,4100 Z"/>
										<text x="2400" y="4115" fill="#101010" font-family="Arial" font-size="32pt" text-anchor="middle" direction="ltr">
											<tspan x="2400" dy="50" unicode-bidi="embed">col = 10 to 14</tspan>
										</text>
									</g>
									<text x="2700" y="4065" fill="#DADCE0" font-family="Arial" font-size="32pt" text-anchor="middle" direction="ltr">
										<tspan x="2700" dy="50" unicode-bidi="embed">Next</tspan>
									</text>
									<text x="2312" y="4215" fill="#DADCE0" font-family="Arial" font-size="32pt" text-anchor="middle" direction="ltr">
										<tspan x="2312" dy="50" unicode-bidi="embed">Done</tspan>
									</text>
								</g>
								<g>
									<path fill="#E0E080" stroke="#101010" stroke-width="3" stroke-dasharray="none" d="M 1825,3925 L 1775,3975 L 1825,4025 L 2225,4025 L 2275,3975 L 2225,3925 Z"/>
									<text x="2025" y="3940" fill="#101010" font-family="Arial" font-size="32pt" text-anchor="middle" direction="ltr">
										<tspan x="2025" dy="50" unicode-bidi="embed">i = i to userInput/5</tspan>
									</text>
								</g>
								<text x="2350" y="3890" fill="#DADCE0" font-family="Arial" font-size="32pt" text-anchor="middle" direction="ltr">
									<tspan x="2350" dy="50" unicode-bidi="embed">Next</tspan>
								</text>
								<text x="1937" y="4040" fill="#DADCE0" font-family="Arial" font-size="32pt" text-anchor="middle" direction="ltr">
									<tspan x="1937" dy="50" unicode-bidi="embed">Done</tspan>
								</text>
							</g>
							<g>
								<path fill="#2060A0" stroke="#60A0E0" stroke-width="3" stroke-dasharray="none" d="M 1875,4575 L 1875,4675 L 2175,4675 L 2175,4575 Z"/>
								<text x="2025" y="4590" fill="#FFC080" font-family="Arial" font-size="32pt" text-anchor="middle" direction="ltr">
									<tspan x="2025" dy="50" unicode-bidi="embed">i = 0</tspan>
								</text>
							</g>
							<g>
								<polyline fill="none" stroke="#EAEEF0" stroke-width="6" stroke-dasharray="none" points="2275,4825 2400,4825 2400,4936"/>
								<polygon fill="#EAEEF0" stroke="none" points="2400,4950 2413,4925 2386,4925"/>
								<polyline fill="none" stroke="#EAEEF0" stroke-width="6" stroke-dasharray="none" points="2400,5050 2400,5350 2075,5350 2075,4888"/>
								<polygon fill="#EAEEF0" stroke="none" points="2075,4875 2061,4899 2088,4899"/>
								<g>
									<polyline fill="none" stroke="#EAEEF0" stroke-width="6" stroke-dasharray="none" points="2625,5000 2825,5000 2825,5086"/>
									<polygon fill="#EAEEF0" stroke="none" points="2825,5100 2838,5075 2811,5075"/>
									<polyline fill="none" stroke="#EAEEF0" stroke-width="6" stroke-dasharray="none" points="2825,5200 2825,5275 2450,5275 2450,5063"/>
									<polygon fill="#EAEEF0" stroke="none" points="2450,5050 2436,5074 2463,5074"/>
									<g>
										<path fill="#60A060" stroke="#A0E0A0" stroke-width="3" stroke-dasharray="none" d="M 2550,5100 L 2550,5200 L 3100,5200 L 3100,5100 Z"/>
										<polyline fill="none" stroke="#A0E0A0" stroke-width="3" stroke-dasharray="none" points="2575,5100 2575,5200"/>
										<polyline fill="none" stroke="#A0E0A0" stroke-width="3" stroke-dasharray="none" points="3075,5100 3075,5200"/>
										<text x="2825" y="5115" fill="#F8F8F8" font-family="Arial" font-size="32pt" text-anchor="middle" direction="ltr">
											<tspan x="2825" dy="50" unicode-bidi="embed">printcol(userInput,col)</tspan>
										</text>
									</g>
									<g>
										<path fill="#E0E080" stroke="#101010" stroke-width="3" stroke-dasharray="none" d="M 2225,4950 L 2175,5000 L 2225,5050 L 2575,5050 L 2625,5000 L 2575,4950 Z"/>
										<text x="2400" y="4965" fill="#101010" font-family="Arial" font-size="32pt" text-anchor="middle" direction="ltr">
											<tspan x="2400" dy="50" unicode-bidi="embed">col = 15 to 19</tspan>
										</text>
									</g>
									<text x="2700" y="4915" fill="#DADCE0" font-family="Arial" font-size="32pt" text-anchor="middle" direction="ltr">
										<tspan x="2700" dy="50" unicode-bidi="embed">Next</tspan>
									</text>
									<text x="2312" y="5065" fill="#DADCE0" font-family="Arial" font-size="32pt" text-anchor="middle" direction="ltr">
										<tspan x="2312" dy="50" unicode-bidi="embed">Done</tspan>
									</text>
								</g>
								<g>
									<path fill="#E0E080" stroke="#101010" stroke-width="3" stroke-dasharray="none" d="M 1825,4775 L 1775,4825 L 1825,4875 L 2225,4875 L 2275,4825 L 2225,4775 Z"/>
									<text x="2025" y="4790" fill="#101010" font-family="Arial" font-size="32pt" text-anchor="middle" direction="ltr">
										<tspan x="2025" dy="50" unicode-bidi="embed">i = i to userInput/5</tspan>
									</text>
								</g>
								<text x="2350" y="4740" fill="#DADCE0" font-family="Arial" font-size="32pt" text-anchor="middle" direction="ltr">
									<tspan x="2350" dy="50" unicode-bidi="embed">Next</tspan>
								</text>
								<text x="1937" y="4890" fill="#DADCE0" font-family="Arial" font-size="32pt" text-anchor="middle" direction="ltr">
									<tspan x="1937" dy="50" unicode-bidi="embed">Done</tspan>
								</text>
							</g>
							<g>
								<path fill="#2060A0" stroke="#60A0E0" stroke-width="3" stroke-dasharray="none" d="M 1875,5425 L 1875,5525 L 2175,5525 L 2175,5425 Z"/>
								<text x="2025" y="5440" fill="#FFC080" font-family="Arial" font-size="32pt" text-anchor="middle" direction="ltr">
									<tspan x="2025" dy="50" unicode-bidi="embed">i = 0</tspan>
								</text>
							</g>
							<g>
								<polyline fill="none" stroke="#EAEEF0" stroke-width="6" stroke-dasharray="none" points="2275,5675 2400,5675 2400,5786"/>
								<polygon fill="#EAEEF0" stroke="none" points="2400,5800 2413,5775 2386,5775"/>
								<polyline fill="none" stroke="#EAEEF0" stroke-width="6" stroke-dasharray="none" points="2400,5900 2400,6200 2075,6200 2075,5738"/>
								<polygon fill="#EAEEF0" stroke="none" points="2075,5725 2061,5749 2088,5749"/>
								<g>
									<polyline fill="none" stroke="#EAEEF0" stroke-width="6" stroke-dasharray="none" points="2625,5850 2825,5850 2825,5936"/>
									<polygon fill="#EAEEF0" stroke="none" points="2825,5950 2838,5925 2811,5925"/>
									<polyline fill="none" stroke="#EAEEF0" stroke-width="6" stroke-dasharray="none" points="2825,6050 2825,6125 2450,6125 2450,5913"/>
									<polygon fill="#EAEEF0" stroke="none" points="2450,5900 2436,5924 2463,5924"/>
									<g>
										<path fill="#60A060" stroke="#A0E0A0" stroke-width="3" stroke-dasharray="none" d="M 2550,5950 L 2550,6050 L 3100,6050 L 3100,5950 Z"/>
										<polyline fill="none" stroke="#A0E0A0" stroke-width="3" stroke-dasharray="none" points="2575,5950 2575,6050"/>
										<polyline fill="none" stroke="#A0E0A0" stroke-width="3" stroke-dasharray="none" points="3075,5950 3075,6050"/>
										<text x="2825" y="5965" fill="#F8F8F8" font-family="Arial" font-size="32pt" text-anchor="middle" direction="ltr">
											<tspan x="2825" dy="50" unicode-bidi="embed">printcol(userInput,col)</tspan>
										</text>
									</g>
									<g>
										<path fill="#E0E080" stroke="#101010" stroke-width="3" stroke-dasharray="none" d="M 2225,5800 L 2175,5850 L 2225,5900 L 2575,5900 L 2625,5850 L 2575,5800 Z"/>
										<text x="2400" y="5815" fill="#101010" font-family="Arial" font-size="32pt" text-anchor="middle" direction="ltr">
											<tspan x="2400" dy="50" unicode-bidi="embed">col = 20 to 24</tspan>
										</text>
									</g>
									<text x="2700" y="5765" fill="#DADCE0" font-family="Arial" font-size="32pt" text-anchor="middle" direction="ltr">
										<tspan x="2700" dy="50" unicode-bidi="embed">Next</tspan>
									</text>
									<text x="2312" y="5915" fill="#DADCE0" font-family="Arial" font-size="32pt" text-anchor="middle" direction="ltr">
										<tspan x="2312" dy="50" unicode-bidi="embed">Done</tspan>
									</text>
								</g>
								<g>
									<path fill="#E0E080" stroke="#101010" stroke-width="3" stroke-dasharray="none" d="M 1825,5625 L 1775,5675 L 1825,5725 L 2225,5725 L 2275,5675 L 2225,5625 Z"/>
									<text x="2025" y="5640" fill="#101010" font-family="Arial" font-size="32pt" text-anchor="middle" direction="ltr">
										<tspan x="2025" dy="50" unicode-bidi="embed">i = i to userInput/5</tspan>
									</text>
								</g>
								<text x="2350" y="5590" fill="#DADCE0" font-family="Arial" font-size="32pt" text-anchor="middle" direction="ltr">
									<tspan x="2350" dy="50" unicode-bidi="embed">Next</tspan>
								</text>
								<text x="1937" y="5740" fill="#DADCE0" font-family="Arial" font-size="32pt" text-anchor="middle" direction="ltr">
									<tspan x="1937" dy="50" unicode-bidi="embed">Done</tspan>
								</text>
							</g>
							<g>
								<path fill="#2060A0" stroke="#60A0E0" stroke-width="3" stroke-dasharray="none" d="M 1875,6275 L 1875,6375 L 2175,6375 L 2175,6275 Z"/>
								<text x="2025" y="6290" fill="#FFC080" font-family="Arial" font-size="32pt" text-anchor="middle" direction="ltr">
									<tspan x="2025" dy="50" unicode-bidi="embed">i = 0</tspan>
								</text>
							</g>
						</g>
						<g>
							<polyline fill="none" stroke="#EAEEF0" stroke-width="6" stroke-dasharray="none" points="1025,2275 1250,2275 1250,2361"/>
							<polygon fill="#EAEEF0" stroke="none" points="1250,2375 1263,2350 1236,2350"/>
							<polyline fill="none" stroke="#EAEEF0" stroke-width="6" stroke-dasharray="none" points="1250,2475 1250,2550 875,2550 875,2338"/>
							<polygon fill="#EAEEF0" stroke="none" points="875,2325 861,2349 888,2349"/>
							<g>
								<path fill="#60A060" stroke="#A0E0A0" stroke-width="3" stroke-dasharray="none" d="M 975,2375 L 975,2475 L 1525,2475 L 1525,2375 Z"/>
								<polyline fill="none" stroke="#A0E0A0" stroke-width="3" stroke-dasharray="none" points="1000,2375 1000,2475"/>
								<polyline fill="none" stroke="#A0E0A0" stroke-width="3" stroke-dasharray="none" points="1500,2375 1500,2475"/>
								<text x="1250" y="2390" fill="#F8F8F8" font-family="Arial" font-size="32pt" text-anchor="middle" direction="ltr">
									<tspan x="1250" dy="50" unicode-bidi="embed">printcol(userInput,col)</tspan>
								</text>
							</g>
							<g>
								<path fill="#E0E080" stroke="#101010" stroke-width="3" stroke-dasharray="none" d="M 675,2225 L 625,2275 L 675,2325 L 975,2325 L 1025,2275 L 975,2225 Z"/>
								<text x="825" y="2240" fill="#101010" font-family="Arial" font-size="32pt" text-anchor="middle" direction="ltr">
									<tspan x="825" dy="50" unicode-bidi="embed">col = 0 to 24</tspan>
								</text>
							</g>
							<text x="1100" y="2190" fill="#DADCE0" font-family="Arial" font-size="32pt" text-anchor="middle" direction="ltr">
								<tspan x="1100" dy="50" unicode-bidi="embed">Next</tspan>
							</text>
							<text x="737" y="2340" fill="#DADCE0" font-family="Arial" font-size="32pt" text-anchor="middle" direction="ltr">
								<tspan x="737" dy="50" unicode-bidi="embed">Done</tspan>
							</text>
						</g>
						<ellipse cx="1575" cy="6475" rx="25" ry="25" fill="#60A060" stroke="#A0E0A0" stroke-width="3"/>
						<text x="1975" y="1890" fill="#DADCE0" font-family="Arial" font-size="32pt" text-anchor="middle" direction="ltr">
							<tspan x="1975" dy="50" unicode-bidi="embed">True</tspan>
						</text>
						<text x="1162" y="1890" fill="#DADCE0" font-family="Arial" font-size="32pt" text-anchor="middle" direction="ltr">
							<tspan x="1162" dy="50" unicode-bidi="embed">False</tspan>
						</text>
					</g>
					<g>
						<path fill="#A04040" stroke="#E08080" stroke-width="3" stroke-dasharray="none" d="M 850,6575 L 775,6725 L 2300,6725 L 2375,6575 Z"/>
						<text x="1575" y="6590" fill="#FFFF80" font-family="Arial" font-size="32pt" text-anchor="middle" direction="ltr">
							<tspan x="1575" dy="50" unicode-bidi="embed">Output</tspan>
							<tspan x="1575" dy="50" unicode-bidi="embed"> &quot;________________________________________________________&quot;</tspan>
						</text>
					</g>
					<g>
						<path fill="#A04040" stroke="#E08080" stroke-width="3" stroke-dasharray="none" d="M 1275,6800 L 1175,7000 L 1875,7000 L 1975,6800 Z"/>
						<text x="1575" y="6815" fill="#FFFF80" font-family="Arial" font-size="32pt" text-anchor="middle" direction="ltr">
							<tspan x="1575" dy="50" unicode-bidi="embed">Output &quot;Please Enter front</tspan>
							<tspan x="1575" dy="50" unicode-bidi="embed"> size(1-50) OR enter 0 to</tspan>
							<tspan x="1575" dy="50" unicode-bidi="embed"> exit program.&quot;</tspan>
						</text>
					</g>
					<g>
						<path fill="#C08040" stroke="#FFC080" stroke-width="3" stroke-dasharray="none" d="M 1375,7075 L 1375,7200 L 1775,7200 L 1775,7075 Z"/>
						<polyline fill="none" stroke="#FFC080" stroke-width="3" stroke-dasharray="none" points="1375,7100 1775,7100"/>
						<polyline fill="none" stroke="#FFC080" stroke-width="3" stroke-dasharray="none" points="1400,7075 1400,7200"/>
						<text x="1587" y="7115" fill="#FFF0D0" font-family="Arial" font-size="32pt" text-anchor="middle" direction="ltr">
							<tspan x="1587" dy="50" unicode-bidi="embed">Input userInput</tspan>
						</text>
					</g>
				</g>
				<g>
					<path fill="#E0E080" stroke="#101010" stroke-width="3" stroke-dasharray="none" d="M 300,1650 L 250,1700 L 300,1750 L 650,1750 L 700,1700 L 650,1650 Z"/>
					<text x="475" y="1665" fill="#101010" font-family="Arial" font-size="32pt" text-anchor="middle" direction="ltr">
						<tspan x="475" dy="50" unicode-bidi="embed">!(userInput==0)</tspan>
					</text>
				</g>
				<text x="775" y="1615" fill="#DADCE0" font-family="Arial" font-size="32pt" text-anchor="middle" direction="ltr">
					<tspan x="775" dy="50" unicode-bidi="embed">True</tspan>
				</text>
				<text x="387" y="1765" fill="#DADCE0" font-family="Arial" font-size="32pt" text-anchor="middle" direction="ltr">
					<tspan x="387" dy="50" unicode-bidi="embed">False</tspan>
				</text>
			</g>
		</g>
	</g>
</svg>
